<svg xmlns="http://www.w3.org/2000/svg" width="1200" height="820" viewBox="0 0 1200 820">
  <rect width="1200" height="820" fill="#f7f8fb"/>
  <text x="48" y="58" font-family="Arial, sans-serif" font-size="30" font-weight="700" fill="#172033">Rom · 24 часа</text>
  <text x="48" y="90" font-family="Arial, sans-serif" font-size="17" fill="#607087">26.06.2026 09:00 · AgentMonitor</text>

  <rect x="40" y="125" width="1120" height="300" rx="10" fill="#ffffff" stroke="#dfe5ee"/>
  <text x="70" y="165" font-family="Arial, sans-serif" font-size="22" font-weight="700" fill="#172033">CPU / RAM</text>
  <line x1="90" y1="365" x2="1120" y2="365" stroke="#d9e1ec"/>
  <line x1="90" y1="305" x2="1120" y2="305" stroke="#edf1f6"/>
  <line x1="90" y1="245" x2="1120" y2="245" stroke="#edf1f6"/>
  <line x1="90" y1="185" x2="1120" y2="185" stroke="#edf1f6"/>
  <text x="54" y="370" font-family="Arial, sans-serif" font-size="13" fill="#78879a">0%</text>
  <text x="48" y="310" font-family="Arial, sans-serif" font-size="13" fill="#78879a">25%</text>
  <text x="48" y="250" font-family="Arial, sans-serif" font-size="13" fill="#78879a">50%</text>
  <text x="48" y="190" font-family="Arial, sans-serif" font-size="13" fill="#78879a">75%</text>
  <line x1="90" y1="160" x2="1120" y2="160" stroke="#f07070" stroke-dasharray="8 8"/>
  <text x="1080" y="154" font-family="Arial, sans-serif" font-size="13" fill="#d24b4b">90%</text>
  <polyline points="90,330 170,320 250,310 330,285 410,260 490,210 570,175 650,170 730,205 810,245 890,270 970,250 1050,230 1120,260" fill="none" stroke="#e24c4b" stroke-width="4"/>
  <polyline points="90,275 170,270 250,265 330,260 410,250 490,245 570,240 650,235 730,230 810,225 890,220 970,215 1050,210 1120,205" fill="none" stroke="#3b82f6" stroke-width="4"/>
  <rect x="910" y="140" width="16" height="16" fill="#e24c4b"/>
  <text x="934" y="154" font-family="Arial, sans-serif" font-size="15" fill="#334155">CPU avg 64%, max 96%</text>
  <rect x="910" y="166" width="16" height="16" fill="#3b82f6"/>
  <text x="934" y="180" font-family="Arial, sans-serif" font-size="15" fill="#334155">RAM avg 58%, max 71%</text>
  <text x="90" y="395" font-family="Arial, sans-serif" font-size="13" fill="#78879a">09:00</text>
  <text x="385" y="395" font-family="Arial, sans-serif" font-size="13" fill="#78879a">15:00</text>
  <text x="675" y="395" font-family="Arial, sans-serif" font-size="13" fill="#78879a">21:00</text>
  <text x="1015" y="395" font-family="Arial, sans-serif" font-size="13" fill="#78879a">09:00</text>

  <rect x="40" y="455" width="1120" height="300" rx="10" fill="#ffffff" stroke="#dfe5ee"/>
  <text x="70" y="495" font-family="Arial, sans-serif" font-size="22" font-weight="700" fill="#172033">Свободное место на дисках</text>
  <line x1="90" y1="695" x2="1120" y2="695" stroke="#d9e1ec"/>
  <line x1="90" y1="635" x2="1120" y2="635" stroke="#edf1f6"/>
  <line x1="90" y1="575" x2="1120" y2="575" stroke="#edf1f6"/>
  <line x1="90" y1="515" x2="1120" y2="515" stroke="#edf1f6"/>
  <line x1="90" y1="671" x2="1120" y2="671" stroke="#f59e0b" stroke-dasharray="8 8"/>
  <line x1="90" y1="683" x2="1120" y2="683" stroke="#ef4444" stroke-dasharray="8 8"/>
  <text x="50" y="700" font-family="Arial, sans-serif" font-size="13" fill="#78879a">0%</text>
  <text x="44" y="640" font-family="Arial, sans-serif" font-size="13" fill="#78879a">25%</text>
  <text x="44" y="580" font-family="Arial, sans-serif" font-size="13" fill="#78879a">50%</text>
  <text x="44" y="520" font-family="Arial, sans-serif" font-size="13" fill="#78879a">75%</text>
  <polyline points="90,615 170,616 250,617 330,618 410,619 490,620 570,621 650,622 730,623 810,624 890,625 970,626 1050,627 1120,628" fill="none" stroke="#16a34a" stroke-width="4"/>
  <polyline points="90,610 170,610 250,611 330,611 410,612 490,612 570,612 650,613 730,613 810,613 890,614 970,614 1050,614 1120,615" fill="none" stroke="#06b6d4" stroke-width="4"/>
  <polyline points="90,650 170,652 250,654 330,656 410,657 490,658 570,660 650,661 730,663 810,665 890,666 970,668 1050,670 1120,672" fill="none" stroke="#f59e0b" stroke-width="4"/>
  <rect x="850" y="480" width="16" height="16" fill="#16a34a"/>
  <text x="874" y="494" font-family="Arial, sans-serif" font-size="15" fill="#334155">C: min 32.5%</text>
  <rect x="850" y="506" width="16" height="16" fill="#06b6d4"/>
  <text x="874" y="520" font-family="Arial, sans-serif" font-size="15" fill="#334155">D: min 36.0%</text>
  <rect x="850" y="532" width="16" height="16" fill="#f59e0b"/>
  <text x="874" y="546" font-family="Arial, sans-serif" font-size="15" fill="#334155">E: min 18.9%</text>
  <text x="90" y="725" font-family="Arial, sans-serif" font-size="13" fill="#78879a">09:00</text>
  <text x="385" y="725" font-family="Arial, sans-serif" font-size="13" fill="#78879a">15:00</text>
  <text x="675" y="725" font-family="Arial, sans-serif" font-size="13" fill="#78879a">21:00</text>
  <text x="1015" y="725" font-family="Arial, sans-serif" font-size="13" fill="#78879a">09:00</text>
  <text x="48" y="790" font-family="Arial, sans-serif" font-size="17" fill="#607087">Красная линия: критично 10%, оранжевая: предупреждение 20%</text>
</svg>
